# xmcd CD database file
#
# Track frame offsets:
#	183
#	14398
#	28688
#	41718
#	55893
#	69760
#	83893
#	98818
#	112088
#	124533
#	138198
#	156280
#	168525
#	184303
#
# Disc length: 2628 seconds
#
# Revision: 0
# Processed by: cddbd v1.5PL3 Copyright (c) Steve Scherf et al.
# Submitted via: CDex 1.50
#
DISCID=b90a420e
DTITLE=Reg McTaggart - Misty River
DYEAR=1900
DGENRE=Country
TTITLE0=Till I'm Too Old To Die Young
TTITLE1=Misty River
TTITLE2=My Next Broken
TTITLE3=It's So Fine
TTITLE4=Lillie's White Lies
TTITLE5=Better Man
TTITLE6=I'm Turning Off A Memory
TTITLE7=Wake Me Up And Say Goodbye
TTITLE8=It's Not Her Memory, It's Mine
TTITLE9=If You Want To Find Love
TTITLE10=When This Old Hat Was New
TTITLE11=Fourteen Minutes Old
TTITLE12=Someone To Love You
TTITLE13=You're The Reason I Never Saw "Hank Jnr" Play
EXTD=
EXTT0=
EXTT1=
EXTT2=
EXTT3=
EXTT4=
EXTT5=
EXTT6=
EXTT7=
EXTT8=
EXTT9=
EXTT10=
EXTT11=
EXTT12=
EXTT13=
PLAYORDER=
